<svg id="Слой_1" data-name="Слой 1" xmlns="http://www.w3.org/2000/svg" xmlns:xlink="http://www.w3.org/1999/xlink" viewBox="0 0 500 215"><defs><style>.cls-1{fill:url(#Безымянный_градиент_30);}.cls-2{fill:url(#Безымянный_градиент_30-2);}.cls-3{fill:url(#linear-gradient);}.cls-4{fill:url(#linear-gradient-2);}</style><linearGradient id="Безымянный_градиент_30" x1="118.1" y1="40.72" x2="118.1" y2="193.91" gradientUnits="userSpaceOnUse"><stop offset="0" stop-color="#09bffe"/><stop offset="1" stop-color="#d5f4ff"/></linearGradient><linearGradient id="Безымянный_градиент_30-2" x1="115.53" y1="213.48" x2="115.53" y2="29.4" xlink:href="#Безымянный_градиент_30"/><linearGradient id="linear-gradient" x1="177.02" y1="112.72" x2="134.29" y2="142.3" gradientUnits="userSpaceOnUse"><stop offset="0" stop-color="#09bffe"/><stop offset="1" stop-color="#2d14b7"/></linearGradient><linearGradient id="linear-gradient-2" x1="143.04" y1="121.42" x2="143.04" y2="101.69" xlink:href="#linear-gradient"/></defs><title>logo_v2_21</title><path d="M196.72,105.81a1.32,1.32,0,0,1-.36-1v-4.79a1.34,1.34,0,0,1,.38-1,1.27,1.27,0,0,1,.91-.38h6.44a1.32,1.32,0,0,1,1.34,1.34v4.79a1.33,1.33,0,0,1-1.34,1.34h-6.44A1.21,1.21,0,0,1,196.72,105.81Zm0,30.52a1.27,1.27,0,0,1-.38-.91V111.2a1.24,1.24,0,0,1,.38-.93,1.29,1.29,0,0,1,.91-.36h6.44a1.32,1.32,0,0,1,.95.36,1.21,1.21,0,0,1,.39.93v24.22a1.21,1.21,0,0,1-.39.93,1.32,1.32,0,0,1-.95.36h-6.44A1.27,1.27,0,0,1,196.74,136.33Z"/><path d="M213.49,134.08c-1.9-2.09-2.93-5.08-3.06-9l-.05-1.81.05-1.85c.13-3.75,1.17-6.7,3.09-8.84a10,10,0,0,1,7.83-3.22,9.83,9.83,0,0,1,7.48,3v-11a1.24,1.24,0,0,1,.38-.93,1.29,1.29,0,0,1,.91-.36h6.65a1.36,1.36,0,0,1,.95.36,1.21,1.21,0,0,1,.39.93v34a1.21,1.21,0,0,1-.39.93,1.36,1.36,0,0,1-.95.36h-6.14a1.27,1.27,0,0,1-.9-.38,1.24,1.24,0,0,1-.39-.91v-1.59c-1.85,2.26-4.52,3.4-8,3.4A10.09,10.09,0,0,1,213.49,134.08Zm14.15-5.43a6.29,6.29,0,0,0,1.19-3.59c.07-1,.1-1.61.1-2s0-1-.1-1.91a5.46,5.46,0,0,0-1.21-3.33,4.06,4.06,0,0,0-3.28-1.31,3.86,3.86,0,0,0-3.32,1.37,7,7,0,0,0-1.16,3.78l-.05,1.6.05,1.6A7.06,7.06,0,0,0,221,128.7a3.85,3.85,0,0,0,3.32,1.36A3.89,3.89,0,0,0,227.64,128.65Z"/><path d="M247.46,136.35a1.21,1.21,0,0,1-.39-.93v-18.5h-3.86a1.36,1.36,0,0,1-1-.36,1.24,1.24,0,0,1-.38-.93V111.2a1.24,1.24,0,0,1,.38-.93,1.36,1.36,0,0,1,1-.36h3.86v-1.55q0-5.14,3-7.47c2-1.55,4.85-2.32,8.56-2.32h13.66a1.23,1.23,0,0,1,1.28,1.29v4.43a1.25,1.25,0,0,1-.36.9,1.2,1.2,0,0,1-.92.39H259a3.07,3.07,0,0,0-2.34.75,3.24,3.24,0,0,0-.7,2.29v1.29h16.29a1.23,1.23,0,0,1,1.28,1.29v24.22a1.29,1.29,0,0,1-.36.91,1.23,1.23,0,0,1-.92.38H266a1.32,1.32,0,0,1-.95-.36,1.21,1.21,0,0,1-.39-.93v-18.5H256v18.5a1.29,1.29,0,0,1-.36.91,1.24,1.24,0,0,1-.93.38h-6.29A1.34,1.34,0,0,1,247.46,136.35Z"/><path d="M279.83,136.33a1.24,1.24,0,0,1-.39-.91V111.2a1.21,1.21,0,0,1,.39-.93,1.25,1.25,0,0,1,.9-.36h6.34a1.27,1.27,0,0,1,.93.36,1.26,1.26,0,0,1,.36.93v2a9.87,9.87,0,0,1,3.58-2.73,11.61,11.61,0,0,1,5-1,10.14,10.14,0,0,1,5.24,1.34,9.2,9.2,0,0,1,3.6,4,14,14,0,0,1,1.32,6.34v14.38a1.29,1.29,0,0,1-.36.91,1.24,1.24,0,0,1-.93.38H299a1.36,1.36,0,0,1-1-.36,1.21,1.21,0,0,1-.39-.93V121.35a5.19,5.19,0,0,0-1.1-3.55,4.1,4.1,0,0,0-3.23-1.24,4.23,4.23,0,0,0-3.24,1.26,5,5,0,0,0-1.19,3.53v14.07a1.29,1.29,0,0,1-.36.91,1.24,1.24,0,0,1-.93.38h-6.85A1.23,1.23,0,0,1,279.83,136.33Z"/><path d="M315.85,136.17a8.46,8.46,0,0,1-3.5-2.91,7.09,7.09,0,0,1-1.26-4.07,6.81,6.81,0,0,1,2.91-5.7,18,18,0,0,1,8-3l6.39-1v-.62a4.1,4.1,0,0,0-.77-2.78,3.33,3.33,0,0,0-2.63-.88,3.68,3.68,0,0,0-1.72.36,9.31,9.31,0,0,0-1.58,1.08,6,6,0,0,1-1.18.83.6.6,0,0,1-.52.36h-6a1.15,1.15,0,0,1-.85-.34.92.92,0,0,1-.28-.8,5.64,5.64,0,0,1,1.39-3.11,10.57,10.57,0,0,1,4.07-3,16.42,16.42,0,0,1,6.75-1.23q6.4,0,9.49,2.8a9.79,9.79,0,0,1,3.09,7.61v15.61a1.29,1.29,0,0,1-.36.91,1.24,1.24,0,0,1-.93.38h-6.34a1.27,1.27,0,0,1-.9-.38,1.24,1.24,0,0,1-.39-.91v-1.8a8.3,8.3,0,0,1-3.14,2.6,10.61,10.61,0,0,1-4.79,1A11.46,11.46,0,0,1,315.85,136.17Zm11.24-6.52a6.09,6.09,0,0,0,1.42-4.33v-.62l-4.28.72q-4.34.83-4.33,3.1a2.22,2.22,0,0,0,1,1.9,4.13,4.13,0,0,0,2.5.73A4.85,4.85,0,0,0,327.09,129.65Z"/><path d="M343.68,136.33a1.27,1.27,0,0,1-.38-.91V111.2a1.24,1.24,0,0,1,.38-.93,1.29,1.29,0,0,1,.91-.36h6.34a1.23,1.23,0,0,1,1.28,1.29v2a10,10,0,0,1,3.59-2.73,11.61,11.61,0,0,1,5-1,10.11,10.11,0,0,1,5.23,1.34,9.16,9.16,0,0,1,3.61,4A14,14,0,0,1,371,121v14.38a1.29,1.29,0,0,1-.36.91,1.23,1.23,0,0,1-.92.38h-6.86a1.34,1.34,0,0,1-.95-.36,1.21,1.21,0,0,1-.39-.93V121.35a5.14,5.14,0,0,0-1.11-3.55,4.08,4.08,0,0,0-3.22-1.24,4.23,4.23,0,0,0-3.24,1.26,4.93,4.93,0,0,0-1.19,3.53v14.07a1.29,1.29,0,0,1-.36.91,1.24,1.24,0,0,1-.93.38h-6.85A1.27,1.27,0,0,1,343.68,136.33Z"/><path d="M379.56,134.11a11.55,11.55,0,0,1-3.89-8.69l-.06-2.06.06-2.11a11.45,11.45,0,0,1,3.86-8.71,14.1,14.1,0,0,1,9.54-3.14,16.12,16.12,0,0,1,7.52,1.59,12.28,12.28,0,0,1,4.54,3.79,8.16,8.16,0,0,1,1.59,4,1.08,1.08,0,0,1-.36,1,1.37,1.37,0,0,1-1,.39h-6.9a1.36,1.36,0,0,1-.88-.26A2.35,2.35,0,0,1,393,119a4.64,4.64,0,0,0-1.46-2.11,3.75,3.75,0,0,0-2.3-.67q-4,0-4.12,5.26l0,2,0,1.7a6.34,6.34,0,0,0,1.08,3.94,3.7,3.7,0,0,0,3,1.26,3.81,3.81,0,0,0,2.35-.64,4.67,4.67,0,0,0,1.41-2.14,2.45,2.45,0,0,1,.57-.83,1.36,1.36,0,0,1,.88-.25h6.9a1.36,1.36,0,0,1,.93.36,1.1,1.1,0,0,1,.41.87,7.57,7.57,0,0,1-1.41,3.84,12.08,12.08,0,0,1-4.51,3.95,16,16,0,0,1-7.73,1.7A14.08,14.08,0,0,1,379.56,134.11Z"/><path d="M409.84,133.85q-3.61-3.37-3.72-9.82v-1.59q.21-6.14,3.82-9.59t9.74-3.45a14.81,14.81,0,0,1,7.5,1.77,11.36,11.36,0,0,1,4.59,4.9,16,16,0,0,1,1.52,7.09v1.29a1.33,1.33,0,0,1-1.34,1.34H415.61v.3a6.4,6.4,0,0,0,1.08,3.74,3.41,3.41,0,0,0,2.94,1.42,3.54,3.54,0,0,0,2-.49A7.18,7.18,0,0,0,423,129.5a2.7,2.7,0,0,1,.75-.65,2.44,2.44,0,0,1,.9-.13h6.75a1.19,1.19,0,0,1,.8.29.89.89,0,0,1,.34.69,5.25,5.25,0,0,1-1.53,3.15,12.07,12.07,0,0,1-4.43,3.09,16.86,16.86,0,0,1-6.88,1.29Q413.45,137.23,409.84,133.85Zm14-13.32v-.11a6.09,6.09,0,0,0-1.08-3.84,3.65,3.65,0,0,0-3-1.36,3.56,3.56,0,0,0-3,1.36,6.15,6.15,0,0,0-1.06,3.84v.11Z"/><path class="cls-1" d="M125.86,183a70.44,70.44,0,0,1,0-140.88,69.81,69.81,0,0,1,43,14.65,17.42,17.42,0,1,1-21.28,27.58A35.6,35.6,0,1,0,145.93,142v-3.18H122.74a17.43,17.43,0,1,1,0-34.85h40.61a17.42,17.42,0,0,1,17.42,17.42v28.69a17.42,17.42,0,0,1-5.1,12.32A70,70,0,0,1,125.86,183Z"/><path class="cls-2" d="M151.85,160.51s-34,15.7-60.63-6.58S62.73,75.4,105.31,63C141,52.59,165.65,73.15,172.75,80.13a17.4,17.4,0,0,0-3.89-23.36,69.75,69.75,0,0,0-43-14.65,70.44,70.44,0,0,0,0,140.88,71.59,71.59,0,0,0,12.64-1.14C147.88,172.68,151.85,160.51,151.85,160.51Z"/><path class="cls-3" d="M180.77,150.05V121.36a17.42,17.42,0,0,0-17.42-17.42H122.74a17.43,17.43,0,1,0,0,34.85h23.19V142s-5.44,32.74-46,36.05a70.35,70.35,0,0,0,75.77-15.65A17.42,17.42,0,0,0,180.77,150.05Z"/><path class="cls-4" d="M163.35,103.94H122.74a17.42,17.42,0,0,0-17.43,17.42,16.83,16.83,0,0,0,.11,1.89h75.35v-1.89A17.42,17.42,0,0,0,163.35,103.94Z"/></svg>