<svg version="1.0" xmlns="http://www.w3.org/2000/svg"
 width="512.000000pt" height="512.000000pt" viewBox="0 0 512.000000 512.000000"
 preserveAspectRatio="xMidYMid meet">

<g transform="translate(0.000000,512.000000) scale(0.100000,-0.100000)"
fill="#9299a2" stroke="none">
<path d="M1120 2753 l0 -1248 -105 105 -105 105 -113 -113 -112 -112 298 -297
297 -298 297 298 298 297 -112 112 -113 113 -105 -105 -105 -105 0 1248 0
1247 -160 0 -160 0 0 -1247z"/>
<path d="M2080 3840 l0 -160 1120 0 1120 0 0 160 0 160 -1120 0 -1120 0 0
-160z"/>
<path d="M2080 3040 l0 -160 880 0 880 0 0 160 0 160 -880 0 -880 0 0 -160z"/>
<path d="M2080 2240 l0 -160 640 0 640 0 0 160 0 160 -640 0 -640 0 0 -160z"/>
<path d="M2080 1440 l0 -160 400 0 400 0 0 160 0 160 -400 0 -400 0 0 -160z"/>
</g>
</svg>
