<svg width="330" height="222" viewBox="0 0 330 222" fill="none" xmlns="http://www.w3.org/2000/svg"><path d="M292.249 98.2117L283.735 111.584L278.224 122.451L280.237 126.649L287.596 124.55L292.249 98.2117Z" fill="#587BC9"></path><path d="M302.446 145.506V152.277L293.634 181.662L295.846 212.199L290.334 213.316L281.523 176.042L281.853 165.04L285.912 142.662L302.446 145.506Z" fill="#587BC9"></path><path d="M291.06 212.741L286.836 217.311L288.057 219.647L296.736 215.348L295.119 211.962L291.06 212.741Z" fill="#3B455A"></path><path d="M304.392 214.84L299.211 218.191L299.805 220.731L309.244 218.835L308.518 215.145L304.392 214.84Z" fill="#3B455A"></path><path d="M292.216 98.1777L305.317 92.8287C305.317 92.8287 309.97 104.712 315.283 123.738C320.596 142.764 312.808 166.97 312.808 166.97C312.808 166.97 282.778 159.657 276.771 158.439L284.295 123.67L292.216 98.1777Z" fill="#587BC9"></path><path d="M295.449 153.53L304.293 215.72H308.319L310.893 181.798L316.371 147.876L295.449 153.53Z" fill="#587BC9"></path><path d="M291.786 79.4902C295.35 79.761 298.683 76.748 302.214 77.4928C304.491 77.9667 306.306 80.0657 306.999 82.4017C307.329 83.485 307.428 84.6699 307.131 85.7871C306.933 86.498 306.537 87.1413 306.108 87.6829C305.514 88.4277 304.788 89.071 303.963 89.5449C304.425 90.2897 304.92 90.9668 305.481 91.61C303.831 92.2533 302.181 92.8965 300.531 93.5397C300.168 92.558 299.805 91.61 299.442 90.6283C298.947 90.5944 298.452 90.5267 297.957 90.3913C295.02 89.6126 292.611 86.972 291.951 83.8913C291.654 82.4694 291.72 80.9798 291.786 79.4902Z" fill="#EFBFA5"></path><path d="M292.677 80.6074L303.732 79.2532L305.877 87.9199L308.979 85.3808L307.395 71.2297L291.819 70.8573L285.054 74.9198L285.351 79.0162L291.39 83.1803L292.677 80.6074Z" fill="#3B455A"></path><path d="M296.967 94.9276L310.068 89.5786C310.068 89.5786 314.721 101.461 320.034 120.488C325.347 139.514 317.559 163.72 317.559 163.72C317.559 163.72 290.697 150.11 284.691 148.891L289.047 120.42L296.967 94.9276Z" fill="white"></path><path d="M320.233 120.894C314.92 101.868 310.333 89.9851 310.333 89.9851L297.133 95.3341L297.1 95.4018C297.397 96.1805 297.694 96.9591 297.958 97.7378C298.981 100.852 299.773 104.035 300.235 107.319C301.06 113.04 301.159 118.897 300.961 124.686C300.796 130.204 300.235 135.756 299.278 141.207C298.024 148.418 295.978 155.426 293.371 162.23C305.581 164.769 319.936 167.782 319.936 167.782C319.936 167.782 325.546 139.92 320.233 120.894Z" fill="#587BC9"></path><path d="M309.243 93.3364L319.704 86.701L317.757 68.4535L322.377 66.6254L330 87.4458L328.515 90.8312L314.193 105.016L309.243 93.3364Z" fill="#587BC9"></path><path d="M285.154 115.646L286.474 99.7349H280.105L275.254 121.571L278.62 128.274L284.032 125.566L285.154 115.646Z" fill="#587BC9"></path><path d="M280.864 99.7353V94.3863L284.791 92.829L288.322 95.7066V98.2118L285.715 99.7353H280.864Z" fill="#EFBFA5"></path><path d="M322.179 66.6255L322.938 59.9901L315.909 56.9093L314.589 59.9901L317.889 64.9667L318.714 68.0135L322.179 66.6255Z" fill="#EFBFA5"></path><path d="M20.9881 215.314L20.7241 218.023L25.7072 221.306L28.6113 218.869L26.2682 215.89L21.2851 212.606L20.9881 215.314Z" fill="#3B455A"></path><path d="M32.9669 214.637L32.6699 217.345L37.6529 220.629L40.557 218.225L38.214 215.246L33.2309 211.962L32.9669 214.637Z" fill="#3B455A"></path><path d="M11.6489 163.042L16.9619 187.248L20.1959 215.754L26.3009 215.178L28.7759 145.98L12.4739 146.284L11.6489 163.042Z" fill="#BCBEC0"></path><path d="M42.8998 161.553L43.5928 185.048L39.0388 215.178L32.6698 214.501L31.8118 183.389L27.2577 162.061L25.7397 148.079L39.3358 146.454L42.8998 161.553Z" fill="#BCBEC0"></path><path d="M32.1419 98.3467L17.4898 98.0082L9.00879 114.191L12.0118 129.391L12.5728 147.537L33.4619 147.842L43.5929 146.149L40.3259 125.904L39.5339 101.36L32.1419 98.3467Z" fill="#95D3FF"></path><path d="M16.0709 136.975L16.0049 139.514L20.3609 141.139L22.8689 139.175V136.23L20.4599 136.094L20.3939 135.451L19.5689 134.909L16.0709 136.975Z" fill="#B97262"></path><path d="M16.995 99.1255L0.792001 118.253L0 126.649L16.005 139.615L18.876 135.35L8.51401 124.008L18.546 113.954L16.995 99.1255Z" fill="#95D3FF"></path><path d="M31.2178 85.787C29.0068 79.1854 20.5258 81.6567 18.7768 87.5474C17.6217 91.3729 20.5258 96.3495 24.3868 97.4329C24.4198 97.5683 24.4198 97.7375 24.4198 97.8391C24.4198 98.4485 24.4858 99.0579 24.5848 99.6672C24.6178 99.9042 27.9838 99.2271 28.3798 99.1594C28.5118 99.1256 28.6438 99.0917 28.7428 98.9902C28.8748 98.787 28.6438 98.1438 28.6438 97.873C28.6108 97.6021 28.5778 97.2974 28.5448 97.0266C30.4588 96.0787 31.6468 94.0474 31.9768 91.9823C32.3068 89.8495 31.8778 87.7505 31.2178 85.787Z" fill="#B97262"></path><path d="M21.813 98.2794L26.367 104.847L28.5119 104.678L32.0759 98.0085L21.813 98.2794Z" fill="#D7E8F4"></path><path d="M41.2173 81.0814C41.4813 80.6413 41.7453 80.2012 42.0423 79.7949C42.7023 78.9147 43.5273 78.1699 44.0553 77.1881C44.5833 76.2064 44.7483 74.9199 44.0883 74.0397C43.6593 73.4642 42.9663 73.1933 42.2733 73.0241C40.0293 72.4147 37.6532 72.4147 35.4422 73.0241C33.3302 73.6334 31.4492 74.5814 29.2712 73.8027C27.2252 73.0579 25.8062 73.4303 23.6942 74.2428C21.4172 75.123 18.3812 75.3939 16.3352 76.6126C15.4772 77.1204 14.8172 77.8991 14.2892 78.7793C12.4742 81.7585 12.5732 85.821 14.4542 88.7325C14.8832 89.3757 15.3782 89.9851 15.9062 90.5606C16.9952 91.7455 18.3152 93.2012 19.8002 93.6075C19.8002 92.2533 18.5132 87.9877 19.5032 86.8705C21.0872 85.0762 24.7502 85.6179 26.7632 85.9903C28.9412 86.4304 30.9212 87.9538 33.0992 88.2585C34.6502 88.4616 36.6302 87.6491 37.9502 86.8028C39.6003 85.7194 40.2933 82.7064 41.2173 81.0814Z" fill="#3B455A"></path><path d="M56.6609 71.6019L56.4629 66.0836H54.1529L52.4038 69.3675L53.1298 74.0394L55.5059 74.4118L56.6609 71.6019Z" fill="#95D3FF"></path><path d="M32.0762 98.0082L48.3783 88.9352L53.1303 74.0393L56.3313 74.2424L58.0143 91.4743L38.3462 114.224L32.0762 98.0082Z" fill="#95D3FF"></path><path d="M132.133 83.9589L131.407 80.5058L134.938 74.8182C134.938 74.8182 136.885 75.0891 137.347 74.7844C137.809 74.5136 139.525 79.3547 139.525 79.3547L136.126 82.6386L132.133 83.9589Z" fill="#EFBFA5"></path><path d="M111.771 97.5684L121.209 100.141L131.274 79.3547L135.861 83.1803L130.284 108.063L125.433 112.938L109.296 110.027L111.771 97.5684Z" fill="#3B455A"></path><path d="M121.342 135.282L121.738 170.152L118.108 215.077H113.191L107.284 173.639L100.552 132.134L121.342 135.282Z" fill="#3B455A"></path><path d="M113.224 217.21L118.537 219.918L121.21 217.21L118.537 214.467H113.224V217.21Z" fill="#3B455A"></path><path d="M87.5492 135.282L87.4502 155.459L90.7832 215.077H95.7002L103.95 175.501L108.339 132.134L87.5492 135.282Z" fill="#3B455A"></path><path d="M95.6998 217.21L90.3537 219.918L87.6807 217.21L90.3537 214.467H95.6998V217.21Z" fill="#3B455A"></path><path d="M82.4344 147.436C82.3354 150.652 82.4014 154.918 83.7214 155.087C83.9524 155.121 84.2164 155.019 84.4144 154.884C86.6914 153.733 88.3414 152.142 90.5854 151.025C92.9614 149.874 95.6344 149.264 98.2414 148.858C102.168 148.215 106.128 147.842 110.055 147.808C113.454 147.775 116.952 149.366 120.153 150.246C121.374 150.584 122.397 151.499 123.42 152.209C124.938 153.259 125.598 153.699 125.4 151.532C125.07 147.978 124.707 144.423 124.278 140.868C123.42 133.793 122.265 126.751 120.318 119.912C119.559 117.306 118.701 114.733 117.843 112.16C116.787 109.011 115.731 105.897 114.708 102.748C113.388 98.855 111.21 96.1128 107.349 94.7247C104.016 93.5398 99.8584 93.2352 96.6244 94.8602C93.0274 96.6883 91.3114 102.951 89.5624 106.269C88.0114 109.181 86.0974 117.17 85.5034 120.319C84.8104 124.11 84.1834 127.902 83.6554 131.66C83.0944 135.824 82.6984 139.988 82.5994 144.152C82.5664 144.626 82.5004 145.913 82.4344 147.436Z" fill="#3B455A"></path><path d="M100.254 95.4019L106.92 95.4696C106.92 95.4696 114.048 121.097 114.312 125.498C114.576 129.832 116.391 147.402 116.391 147.402C116.391 147.402 109.032 147.571 100.518 148.655C92.2023 150.483 91.5093 149.4 91.5093 149.4C91.5093 149.4 95.9973 130.915 96.1293 125.634C96.2943 120.217 96.9543 102.274 96.9543 102.274L100.254 95.4019Z" fill="#F7F7F7"></path><path d="M104.281 95.5373C104.215 95.605 104.116 95.6727 104.017 95.7066C103.819 95.7743 103.588 95.7404 103.357 95.7404C102.466 95.6389 101.608 95.5373 100.717 95.4357C101.014 92.6597 99.4297 92.0503 97.8786 90.256C96.3276 88.4617 96.7896 86.0242 96.8886 83.8237C96.9216 83.2143 96.9546 82.5711 97.1856 82.0294C97.6146 81.0476 98.6706 80.506 99.6607 80.2013C102.235 79.3888 105.172 79.5919 107.416 81.0815C108.01 81.4877 108.571 81.9617 108.901 82.6388C109.396 83.6544 109.264 84.8393 109.132 85.9565C108.901 87.6831 108.406 89.3758 107.482 90.8315C106.591 92.1857 104.908 92.8289 104.71 94.454C104.71 94.7925 104.578 95.2665 104.281 95.5373Z" fill="#EFBFA5"></path><path d="M109.099 83.8911C108.934 84.602 108.637 85.2791 108.802 85.9901C109.891 85.6177 110.584 84.5005 110.947 83.3494C111.112 82.8416 111.244 82.266 111.211 81.7244C111.178 81.1827 110.947 80.6072 110.518 80.3025C109.924 79.8624 108.868 80.0316 108.703 80.8103C108.538 81.589 109.33 82.8416 109.099 83.8911Z" fill="#3B455A"></path><path d="M114.806 77.7975C114.773 76.9511 114.476 76.2063 113.75 75.7324C113.123 75.2923 112.397 74.9537 112.034 74.2428C111.737 73.7011 111.704 73.0579 111.407 72.5162C110.879 71.5344 109.725 71.2636 108.735 70.925C106.227 70.1125 104.874 69.1646 102.234 70.2141C100.353 70.9589 97.9105 71.0605 96.1615 72.1438C95.4356 72.5839 94.8086 73.3287 94.3136 74.1412C92.5646 76.985 92.1356 80.9459 93.2906 83.8913C93.5546 84.5684 93.8846 85.1439 94.2146 85.7533C94.9076 86.9043 95.6666 88.3601 96.8875 88.9356C96.9535 88.3939 97.3495 88.0892 97.4815 87.5476C97.5805 87.1752 97.5475 86.7689 97.5145 86.3626C97.4485 84.8053 96.9865 82.3678 98.4715 81.5892C100.386 80.6074 103.983 81.4876 105.798 82.334C107.415 83.0788 110.187 84.0267 111.902 83.2142C113.552 82.4355 114.872 79.5579 114.806 77.7975Z" fill="#3B455A"></path><path d="M157.85 213.644C189.508 213.644 215.172 187.316 215.172 154.839C215.172 122.362 189.508 96.0342 157.85 96.0342C126.193 96.0342 100.529 122.362 100.529 154.839C100.529 187.316 126.193 213.644 157.85 213.644Z" fill="#154E93"></path><path d="M199.463 136.794C197.186 131.276 193.919 126.333 189.794 122.068C185.636 117.802 180.818 114.484 175.439 112.148C169.862 109.745 163.955 108.492 157.85 108.492C151.745 108.492 145.838 109.711 140.261 112.148C134.882 114.484 130.064 117.836 125.906 122.068C121.748 126.333 118.514 131.276 116.237 136.794C113.894 142.516 112.673 148.576 112.673 154.839C112.673 161.102 113.861 167.162 116.237 172.883C118.514 178.401 121.781 183.344 125.906 187.61C130.064 191.875 134.882 195.193 140.261 197.529C145.838 199.933 151.745 201.185 157.85 201.185C163.955 201.185 169.862 199.967 175.439 197.529C180.818 195.193 185.636 191.842 189.794 187.61C193.952 183.344 197.186 178.401 199.463 172.883C201.806 167.162 203.027 161.102 203.027 154.839C203.027 148.576 201.839 142.516 199.463 136.794ZM135.905 153.417C135.905 149.795 136.301 146.24 137.093 142.787H155.573V164.826H137.258C136.367 161.068 135.905 157.276 135.905 153.417ZM169.202 122.948C172.469 126.875 175.076 131.107 176.924 135.61C177.254 136.422 177.584 137.268 177.881 138.115H160.127V114.349C162.272 115.94 165.737 118.784 169.202 122.948ZM155.573 114.823V138.115H138.446C138.743 137.302 139.04 136.49 139.37 135.711C141.218 131.242 143.792 126.977 147.026 123.083C150.194 119.224 153.395 116.482 155.573 114.823ZM155.573 169.498V194.516C153.395 192.586 150.293 189.506 147.158 185.409C143.858 181.076 141.251 176.472 139.403 171.698C139.106 170.953 138.842 170.243 138.578 169.498H155.573ZM160.127 195.024V169.498H177.716C177.485 170.209 177.221 170.92 176.924 171.631C175.076 176.37 172.469 180.974 169.202 185.308C165.77 189.844 162.305 193.162 160.127 195.024ZM160.127 164.826V142.787H179.201C179.993 146.24 180.389 149.795 180.389 153.417C180.389 157.276 179.927 161.068 179.036 164.826H160.127ZM183.854 142.787H196.757C197.879 146.646 198.473 150.709 198.473 154.839C198.473 158.258 198.077 161.61 197.318 164.826H183.755C184.58 161.068 184.976 157.242 184.976 153.417C184.943 149.795 184.58 146.24 183.854 142.787ZM186.593 125.386C190.223 129.109 193.094 133.443 195.107 138.149H182.666C182.204 136.693 181.676 135.237 181.115 133.815C179.069 128.873 176.231 124.201 172.667 119.935C170.819 117.734 168.971 115.839 167.321 114.315C174.548 116.076 181.181 119.833 186.593 125.386ZM129.14 125.386C134.75 119.63 141.68 115.805 149.237 114.112C147.521 115.669 145.607 117.633 143.66 119.935C140.096 124.201 137.258 128.873 135.212 133.815C134.618 135.237 134.09 136.693 133.661 138.149H120.626C122.639 133.443 125.51 129.109 129.14 125.386ZM118.943 142.787H132.44C131.714 146.24 131.351 149.795 131.351 153.417C131.351 157.276 131.747 161.068 132.572 164.826H118.382C117.623 161.61 117.227 158.258 117.227 154.839C117.227 150.709 117.821 146.646 118.943 142.787ZM129.14 184.326C124.982 180.06 121.814 175.016 119.801 169.498H133.793C134.189 170.818 134.651 172.138 135.179 173.459C137.192 178.605 140.03 183.581 143.561 188.253C145.871 191.3 148.181 193.839 150.161 195.769C142.274 194.245 134.981 190.284 129.14 184.326ZM186.593 184.326C180.95 190.115 173.921 194.008 166.298 195.633C168.245 193.704 170.489 191.232 172.733 188.253C176.264 183.581 179.102 178.605 181.115 173.459C181.643 172.138 182.105 170.852 182.501 169.498H195.899C193.886 174.982 190.751 180.026 186.593 184.326Z" fill="white"></path><path d="M97.1858 137.686L95.6348 139.717L98.2088 143.712L101.377 143.644L103.093 141.274L101.212 139.683L101.542 139.108L101.212 138.194L97.1858 137.686Z" fill="#EFBFA5"></path><path d="M94.7764 96.282L82.4013 104.035L75.5703 117.204L77.3523 127.631L95.8984 140.8L99.3634 137.686L86.9884 121.605L87.4504 111.449L94.7764 96.282Z" fill="#3B455A"></path><path d="M209.55 109.248L206.745 107.183L200.244 108.232C200.244 108.232 199.683 110.162 199.254 110.501C198.825 110.839 202.026 112.159 202.026 112.159L206.745 112.532L209.55 109.248Z" fill="#B97262"></path><path d="M245.719 211.589C246.181 211.082 246.709 210.811 247.303 210.878C247.864 210.98 248.392 211.386 248.623 211.894C248.788 212.266 248.821 212.673 248.854 213.079C249.019 215.144 249.019 220.053 246.313 220.764C245.191 221.069 244.267 220.222 243.937 219.207C243.508 217.615 244.201 213.282 245.719 211.589Z" fill="#3B455A"></path><path d="M244.763 180.41L244.895 193.004C244.73 198.59 245.588 204.244 245.423 209.83C245.39 211.116 245.06 212.47 245.39 213.757C245.687 215.009 246.677 215.212 247.7 214.603C249.053 213.757 248.855 211.793 249.053 210.337C249.68 206.376 250.406 202.415 251.066 198.488C251.396 196.559 250.736 193.816 250.868 191.853L252.848 181.29L244.763 180.41Z" fill="#B97262"></path><path d="M258.786 160.063L253.44 184.405L252.318 207.426L243.837 207.222L241.527 142.865L257.961 143.17L258.786 160.063Z" fill="#96BFEE"></path><path d="M233.575 211.116C234.037 210.642 234.598 210.371 235.192 210.507C235.753 210.642 236.248 211.082 236.479 211.624C236.611 211.996 236.644 212.403 236.644 212.809C236.71 214.874 236.512 219.783 233.806 220.325C232.684 220.562 231.76 219.681 231.529 218.632C231.133 217.041 231.991 212.741 233.575 211.116Z" fill="#3B455A"></path><path d="M238.063 182.171L237.337 194.764C237.271 198.251 236.809 201.738 236.479 205.192C236.149 208.408 236.677 211.759 235.027 214.705C234.499 215.619 233.476 216.228 232.75 215.111C232.189 214.264 232.519 212.809 232.42 211.827C231.991 207.832 231.43 203.871 230.968 199.876C230.737 197.913 231.529 195.238 231.463 193.275L229.978 182.645L238.063 182.171Z" fill="#B97262"></path><path d="M227.338 158.574L226.645 182.204L230.242 206.105L238.888 206.376L238.492 180.511L243.046 159.048L244.597 144.998L230.902 143.339L227.338 158.574Z" fill="#96BFEE"></path><path d="M238.162 94.9618L252.88 94.5894L261.427 110.907L258.391 126.175L257.863 144.457L236.842 144.728L229.912 143.577L231.76 124.043L230.704 97.9748L238.162 94.9618Z" fill="#95D3FF"></path><path d="M253.374 95.7063L265.353 114.428L263.538 124.821L245.025 137.99L241.527 134.876L253.902 118.795L253.44 108.639L253.374 95.7063Z" fill="#95D3FF"></path><path d="M237.403 104.847L229.747 120.589L221.464 122.248L204.403 112.193L207.934 108.063L223.213 112.43L230.704 97.9746L237.403 104.847Z" fill="#95D3FF"></path><path d="M239.086 82.3001C241.297 75.6647 249.844 78.1699 251.593 84.0605C252.748 87.9199 249.844 92.8965 245.95 94.0137C245.917 94.1491 245.917 94.3184 245.917 94.4199C245.917 95.0293 245.851 95.6387 245.752 96.2481C245.719 96.485 242.32 95.808 241.924 95.7403C241.792 95.7064 241.627 95.6725 241.561 95.571C241.429 95.3679 241.66 94.6908 241.66 94.4538C241.693 94.183 241.726 93.8783 241.759 93.6074C239.845 92.6595 238.624 90.5944 238.294 88.5293C237.963 86.3965 238.393 84.2637 239.086 82.3001Z" fill="#B97262"></path><path d="M244.629 76.3081C245.091 76.782 245.256 77.4591 245.388 78.1023C245.454 78.4747 245.52 78.881 245.454 79.2534C245.124 80.743 243.672 80.6753 242.55 81.1492C241.164 81.7586 239.976 82.8419 239.184 84.1284C237.963 86.1258 238.524 88.6649 239.019 90.8654C239.184 91.6441 239.547 92.7951 238.953 93.4722C238.359 94.1831 237.006 94.0477 236.28 93.7092C235.62 93.3706 235.092 92.7613 234.399 92.6597C233.64 92.5243 232.617 92.8628 232.287 92.1519C232.188 91.9488 232.188 91.7118 232.056 91.5425C231.627 90.9331 230.604 91.6441 230.01 91.204C229.647 90.9331 229.647 90.3576 229.779 89.9175C229.911 89.4774 230.109 89.0034 230.01 88.5633C229.944 88.1571 229.647 87.8524 229.482 87.5138C229.152 86.8029 229.251 85.8888 229.746 85.3133C230.67 84.1961 232.485 84.4331 233.475 83.3836C234.003 82.8419 234.201 82.0633 234.399 81.3185C234.597 80.5737 234.828 79.7951 235.389 79.3211C236.082 78.7117 237.072 78.8133 237.732 78.0685C238.128 77.6284 238.392 77.0867 238.854 76.7143C239.448 76.2065 240.603 75.8341 241.329 75.5971C242.484 75.157 243.771 75.394 244.629 76.3081Z" fill="#3B455A"></path><path d="M250.042 86.8704C250.075 89.0371 249.019 91.4069 250.009 93.3366C250.999 95.2663 253.474 95.6387 255.553 95.7402C255.883 95.7402 260.338 96.1465 260.338 96.0788C260.668 94.5553 260.998 92.998 261.79 91.6777C262.549 90.3574 263.869 89.2402 265.354 89.1386C264.925 89.0709 264.727 88.5293 264.76 88.0892C264.793 87.6491 265.024 87.2428 265.156 86.8027C265.487 85.7194 265.156 84.5006 264.364 83.7219C262.78 82.2324 259.942 82.8417 258.622 81.1152C257.797 80.0318 257.896 78.5084 257.467 77.1881C256.609 74.6828 253.936 74.1412 251.923 72.9901C249.811 71.8052 247.798 71.1281 245.356 71.5344C242.32 72.0422 240.076 75.2245 241.231 78.2037C242.749 82.0292 248.722 81.6907 249.877 85.5839C249.976 85.9902 250.009 86.4303 250.042 86.8704Z" fill="#3B455A"></path><path d="M248.523 94.8602L243.969 101.496L241.792 101.326L238.228 94.5894L248.523 94.8602Z" fill="white"></path><path d="M243.672 134.774L245.454 136.535L243.375 140.834L240.24 141.24L238.228 139.074L239.878 137.246L239.515 136.738L239.713 135.79L243.672 134.774Z" fill="#B97262"></path><path d="M77.4494 56.6383L69.7274 51.8649C69.5624 51.7633 69.3644 51.7295 69.1664 51.7633C68.9684 51.831 68.8034 51.9326 68.7043 52.1357C68.0443 53.3206 67.4174 54.3362 66.8564 55.1487C66.3284 55.9274 65.8334 56.5368 65.4044 56.943C64.6454 57.654 63.8204 58.0264 62.7974 58.0264C61.3454 58.0264 58.9694 57.3493 55.6694 55.9951C55.0754 55.7581 54.3824 55.5211 53.6564 55.2503C52.9304 54.9795 52.1384 54.7086 51.2474 54.4039C51.9404 51.4925 52.3034 49.4274 52.3034 48.1409C52.3034 47.0575 52.0064 45.331 51.4454 42.8596H60.1903C60.6194 42.8596 60.9494 42.5211 60.9494 42.081V35.1408C60.9494 34.7007 60.6194 34.3622 60.1903 34.3622H48.1784C48.1454 34.3283 48.1454 34.2945 48.1124 34.2606C48.0464 34.1252 47.9804 34.0236 47.9144 33.9221C45.0764 28.6746 43.6244 24.646 43.6244 21.9038C43.6244 18.6199 44.6144 16.0131 46.6274 13.948C48.6404 11.849 51.1814 10.8334 54.3494 10.8334C58.6064 10.8334 61.5104 12.5261 63.1934 16.0808C64.0844 17.8751 64.5134 21.0913 64.5134 25.6616C64.5134 25.8986 64.6454 26.1356 64.8434 26.3048C65.0414 26.4402 65.3054 26.4741 65.5364 26.4064L75.0074 22.784C75.3044 22.6824 75.5024 22.3777 75.5024 22.073C75.5024 15.6407 73.4894 10.2917 69.5294 6.2292C65.6354 2.09897 60.5204 0 54.3824 0C48.3104 0 43.0304 2.06512 38.7074 6.16149C34.4174 10.2579 32.2394 15.3022 32.2394 21.1251C32.2394 24.8491 33.4274 29.284 35.8034 34.396H29.5334C29.1044 34.396 28.7744 34.7346 28.7744 35.1747V42.1148C28.7744 42.5549 29.1044 42.8935 29.5334 42.8935H40.0274C40.7864 44.4846 41.1824 46.1435 41.1824 47.8023C41.1824 49.3935 40.9184 51.2216 40.3574 53.1852C37.4864 53.5914 35.1434 54.5055 33.3944 55.9612C31.7774 57.2139 29.7314 59.9561 27.0914 64.2894C26.9924 64.4587 26.9594 64.6957 26.9924 64.8988C27.0584 65.1019 27.1904 65.2712 27.3884 65.3728L35.6714 69.6723C35.7704 69.74 35.9024 69.74 36.0014 69.74C36.0674 69.74 36.1664 69.74 36.2324 69.7061C36.4304 69.6384 36.5954 69.503 36.6614 69.2999C37.7174 67.0316 38.6414 65.542 39.4334 64.8988C40.1924 64.2894 41.2154 63.9509 42.5684 63.9509C44.3174 63.9509 47.4854 64.8649 52.0064 66.6254C56.8904 68.3519 60.4214 69.1644 62.8634 69.1644C66.2294 69.1644 69.1004 68.2504 71.4434 66.4561C73.7204 64.7295 75.8324 61.7842 77.7134 57.6201C77.9114 57.2816 77.7794 56.8415 77.4494 56.6383Z" fill="#14509B"></path><path d="M329.275 69.3336C329.605 69.1982 329.803 68.8258 329.737 68.4534L327.757 58.9065C327.691 58.6695 327.559 58.4664 327.328 58.3648C327.097 58.2632 326.866 58.2632 326.668 58.3987C326.074 58.7372 325.48 59.0419 324.886 59.3127C322.675 60.3961 319.969 60.9716 316.768 60.9716C310.3 60.9716 305.779 59.0419 301.654 54.5731C300.301 53.0835 299.146 51.4585 298.189 49.7319H314.293C314.722 49.7319 315.052 49.3934 315.052 48.9533V40.3881C315.052 39.948 314.722 39.6095 314.293 39.6095H295.318C295.252 38.797 295.219 38.0522 295.219 37.3413C295.219 36.461 295.252 35.547 295.351 34.5313H314.26C314.689 34.5313 315.019 34.1928 315.019 33.7527V25.1875C315.019 24.7474 314.689 24.4089 314.26 24.4089H298.354C299.245 22.7839 300.367 21.2266 301.621 19.8386C305.713 15.2344 310.201 13.2708 316.669 13.2708C319.111 13.2708 321.586 13.7448 323.962 14.6588C324.325 14.7943 324.754 14.625 324.919 14.2526L328.681 5.789C328.78 5.58588 328.78 5.38275 328.714 5.17962C328.648 4.9765 328.483 4.84108 328.318 4.73952C324.721 3.18222 321.619 2.20044 317.329 2.20044C306.67 2.20044 298.717 5.99213 292.249 14.151C289.741 17.3333 287.794 20.7865 286.474 24.4089H278.95C278.521 24.4089 278.191 24.7474 278.191 25.1875V33.7527C278.191 34.1928 278.521 34.5313 278.95 34.5313H284.362C284.296 35.547 284.23 36.4949 284.23 37.409C284.23 38.1876 284.263 38.9324 284.296 39.6095H278.95C278.521 39.6095 278.191 39.948 278.191 40.3881V48.9533C278.191 49.3934 278.521 49.7319 278.95 49.7319H286.243C287.827 54.37 290.401 58.6018 293.833 62.2919C300.037 68.8935 307.297 71.9404 316.603 71.9404C320.959 71.9404 325.216 71.0602 329.275 69.3336Z" fill="#14509B"></path><path d="M147.576 83.891V61.7503H165.264C165.693 61.7503 166.023 61.4117 166.023 60.9716V53.9976C166.023 53.5575 165.693 53.219 165.264 53.219H148.929L151.998 47.5653H165.264C165.693 47.5653 166.023 47.2267 166.023 46.7866V39.8126C166.023 39.3725 165.693 39.034 165.264 39.034H156.552L167.541 18.6198C167.673 18.3828 167.673 18.0781 167.541 17.8411C167.409 17.6042 167.145 17.4688 166.881 17.4688H156.42C156.156 17.4688 155.892 17.638 155.76 17.875L142.329 42.8595L129.03 17.9089C128.898 17.6719 128.634 17.5026 128.37 17.5026H117.876C117.612 17.5026 117.381 17.638 117.216 17.875C117.084 18.112 117.084 18.3828 117.216 18.6537L128.172 39.1017H119.493C119.064 39.1017 118.734 39.4402 118.734 39.8803V46.8543C118.734 47.2944 119.064 47.633 119.493 47.633H132.726L135.762 53.2867H119.493C119.064 53.2867 118.734 53.6252 118.734 54.0653V61.0393C118.734 61.4794 119.064 61.818 119.493 61.818H137.082V83.9587C137.082 84.3988 137.412 84.7374 137.841 84.7374H146.85C147.246 84.6697 147.576 84.2973 147.576 83.891Z" fill="#3B6CBC"></path><path d="M215.095 66.0163C213.049 64.7298 210.409 63.3418 207.274 61.8522C203.776 60.2272 201.433 58.8392 200.311 57.6881C199.222 56.5709 198.727 55.2168 198.727 53.5579C198.727 51.6959 199.387 50.2063 200.707 48.9876C202.06 47.735 203.743 47.1256 205.855 47.1256C209.254 47.1256 211.927 49.0553 214.105 53.0839C214.204 53.2532 214.369 53.3886 214.567 53.4563C214.765 53.524 214.963 53.4902 215.128 53.3886L222.652 49.0553C223.015 48.8521 223.147 48.3782 222.949 48.0058C221.167 44.7219 219.22 42.2167 217.24 40.5917C215.359 39.0682 212.95 38.0188 210.079 37.4432V30.3338C210.079 29.8937 209.749 29.5552 209.32 29.5552H202.555C202.126 29.5552 201.796 29.8937 201.796 30.3338V37.5109C199.882 38.0526 198.133 38.7974 196.582 39.7453C194.866 40.761 193.414 41.9797 192.226 43.3677C191.038 44.7558 190.147 46.3469 189.52 48.0735C188.893 49.8001 188.596 51.6621 188.596 53.6595C188.596 57.8574 189.916 61.5137 192.523 64.4929C194.173 66.5241 197.506 68.6908 202.654 71.0606C205.03 72.1778 207.01 73.2273 208.561 74.1752C210.079 75.1231 211.201 75.9356 211.96 76.6466C213.412 78.1023 214.105 79.9643 214.105 82.4018C214.105 85.144 213.247 87.3107 211.498 89.0373C209.716 90.7977 207.571 91.644 204.898 91.644C202.192 91.644 200.014 90.8993 198.43 89.4097C196.846 87.7846 195.493 85.0086 194.371 81.1153C194.272 80.7429 193.876 80.506 193.513 80.5737L184.999 82.4018C184.801 82.4357 184.636 82.5711 184.537 82.7403C184.438 82.9096 184.405 83.1128 184.438 83.3159C185.725 89.105 187.771 93.4722 190.51 96.3159C193.15 99.0243 196.978 100.852 201.862 101.766V109.079C201.862 109.519 202.192 109.858 202.621 109.858H209.386C209.815 109.858 210.145 109.519 210.145 109.079V101.462C214.369 100.175 217.834 97.8394 220.408 94.454C223.147 90.8992 224.5 86.7352 224.5 82.0971C224.5 77.3575 222.949 73.2273 219.946 69.8757C218.791 68.6231 217.207 67.3366 215.095 66.0163Z" fill="#1A3462"></path></svg>